Coordinates
version=1
nRows=8
nColumns=40
inDegrees=yes

Units are S.I. units (second, meters, Newtons, ...)
If the header above contains a line with 'inDegrees', this indicates whether rotational values are in degrees (yes) or radians (no).

endheader
time	pelvis_tilt	pelvis_list	pelvis_rotation	pelvis_tx	pelvis_ty	pelvis_tz	hip_flexion_r	hip_adduction_r	hip_rotation_r	knee_angle_r	knee_angle_r_beta	ankle_angle_r	subtalar_angle_r	mtp_angle_r	hip_flexion_l	hip_adduction_l	hip_rotation_l	knee_angle_l	knee_angle_l_beta	ankle_angle_l	subtalar_angle_l	mtp_angle_l	lumbar_extension	lumbar_bending	lumbar_rotation	arm_flex_r	arm_add_r	arm_rot_r	elbow_flex_r	pro_sup_r	wrist_flex_r	wrist_dev_r	arm_flex_l	arm_add_l	arm_rot_l	elbow_flex_l	pro_sup_l	wrist_flex_l	wrist_dev_l
      4.90000000	    -26.15627442	     -8.61568974	     -6.54909904	     -0.33925373	      0.80197248	     -0.72817765	     68.82626075	     15.22907456	     -7.26199444	     72.24755569	      1.26095772	     24.54281325	      0.00000000	      0.00000000	     29.56521767	     -8.30516205	      6.31458991	     93.14887141	      1.62575450	    -10.38920041	      0.00000000	      0.00000000	    -18.63042138	     11.76621880	     10.38884773	     89.93948884	    -10.34560565	     11.20586147	     56.39407872	     86.60032962	      0.00000000	      0.00000000	     89.94621602	     -5.73225639	      8.46427012	     55.60338743	     85.25402991	      0.00000000	      0.00000000
      4.90500000	    -26.07704232	     -8.66152784	     -6.50102087	     -0.33905064	      0.80311320	     -0.72827409	     68.60902272	     15.23519548	     -7.25120820	     72.02591921	      1.25708944	     24.45910474	      0.00000000	      0.00000000	     29.45009129	     -8.30242920	      6.30507268	     93.05221248	      1.62406748	    -10.38591662	      0.00000000	      0.00000000	    -18.67633524	     11.79552258	     10.35962214	     89.93929038	    -10.35600906	     11.23075969	     56.33381394	     86.59701314	      0.00000000	      0.00000000	     89.94613501	     -5.73649100	      8.49949943	     55.59824311	     85.26061001	      0.00000000	      0.00000000
      4.91000000	    -26.02178137	     -8.66024132	     -6.48032373	     -0.33892939	      0.80409833	     -0.72829899	     68.43320528	     15.23126718	     -7.22143500	     71.81381236	      1.25338747	     24.38585632	      0.00000000	      0.00000000	     29.34619277	     -8.28468223	      6.28019576	     92.96299615	      1.62251037	    -10.37993257	      0.00000000	      0.00000000	    -18.68528597	     11.78951785	     10.35186740	     89.93904468	    -10.35596112	     11.27257556	     56.27560796	     86.59680671	      0.00000000	      0.00000000	     89.94610526	     -5.77012205	      8.52814210	     55.58398748	     85.26613404	      0.00000000	      0.00000000
      4.91500000	    -25.96815682	     -8.65898713	     -6.42844651	     -0.33880420	      0.80504514	     -0.72840907	     68.26688615	     15.20267590	     -7.18694860	     71.63450980	      1.25025805	     24.31565457	      0.00000000	      0.00000000	     29.26628130	     -8.24933473	      6.25387907	     92.88399777	      1.62113158	    -10.35729435	      0.00000000	      0.00000000	    -18.67951648	     11.77806160	     10.29771039	     89.93873412	    -10.36813113	     11.30997096	     56.22752098	     86.59481782	      0.00000000	      0.00000000	     89.94615160	     -5.78204700	      8.57024314	     55.57358046	     85.27272388	      0.00000000	      0.00000000
      4.92000000	    -25.92991268	     -8.63769442	     -6.39349391	     -0.33874757	      0.80600825	     -0.72850243	     68.12615207	     15.17335442	     -7.13523143	     71.46988561	      1.24738482	     24.24854716	      0.00000000	      0.00000000	     29.21807366	     -8.19856952	      6.21822141	     92.81187823	      1.61987286	    -10.35009001	      0.00000000	      0.00000000	    -18.66773316	     11.75757578	     10.27032024	     89.93863066	    -10.38789483	     11.34016985	     56.17774719	     86.59487565	      0.00000000	      0.00000000	     89.94605381	     -5.80761409	      8.59045428	     55.58189855	     85.27714296	      0.00000000	      0.00000000
      4.92500000	    -25.90016988	     -8.61564106	     -6.36102315	     -0.33868149	      0.80699526	     -0.72856833	     67.98503941	     15.14483420	     -7.09387068	     71.27223467	      1.24393516	     24.17780210	      0.00000000	      0.00000000	     29.16876510	     -8.16247101	      6.16026498	     92.74195517	      1.61865247	    -10.34364522	      0.00000000	      0.00000000	    -18.64989093	     11.72538391	     10.24847165	     89.93842016	    -10.39830111	     11.37328189	     56.13806357	     86.59650506	      0.00000000	      0.00000000	     89.94598055	     -5.82247583	      8.61357713	     55.57677030	     85.28019772	      0.00000000	      0.00000000
      4.93000000	    -25.82387881	     -8.61904211	     -6.29826171	     -0.33848564	      0.80808781	     -0.72866568	     67.76420142	     15.12521946	     -7.03704021	     71.03185106	      1.23973967	     24.08494770	      0.00000000	      0.00000000	     29.06629783	     -8.11579079	      6.16016242	     92.66345702	      1.61728242	    -10.32479109	      0.00000000	      0.00000000	    -18.67026227	     11.71427254	     10.18821057	     89.93814986	    -10.43013467	     11.42086483	     56.07324274	     86.59650431	      0.00000000	      0.00000000	     89.94594057	     -5.83304029	      8.64742362	     55.56512717	     85.28637708	      0.00000000	      0.00000000
      4.93500000	    -25.77039613	     -8.61372757	     -6.24950311	     -0.33836369	      0.80907080	     -0.72875380	     67.60335566	     15.10691195	     -6.99562968	     70.85891095	      1.23672130	     24.01568421	      0.00000000	      0.00000000	     28.99021531	     -8.07530438	      6.14411423	     92.59354640	      1.61606225	    -10.30868377	      0.00000000	      0.00000000	    -18.66691102	     11.70759913	     10.15410789	     89.93794213	    -10.44354893	     11.47064156	     56.02208076	     86.60077370	      0.00000000	      0.00000000	     89.94582940	     -5.84317312	      8.67374505	     55.56507508	     85.28966825	      0.00000000	      0.00000000
